# xmcd
#
# Track frame offsets: 
#        150
#        13915
#        24077
#        35345
#        52895
#        62804
#        66870
#        77851
#        90574
#        99350
#        114444
#        125565
#        140188
#        151474
#        165582
#        181017
#        192711
#        204016
#        205330
#        218765
#        227728
#        240047
#        256415
#        267694
#        272847
#        285019
#        296874
#        309431
#        312964
#        322961
#        328500
#        340899
#        341903
#
# Disc length: 4688 seconds
#
# Revision: 0
# Processed by: cddbd v1.5.2PL0 Copyright (c) Steve Scherf et al.
# Submitted via: ExactAudioCopy v1.3
#
DISCID=de124e21
DTITLE=Brixentaler Edelweiss Duo - Mit Hits und Witz
DYEAR=1900
DGENRE=Humour
TTITLE0=Heute gehn wir's lustig an
TTITLE1=Begrüssung mit Trinkspruch und Witz 1
TTITLE2=So lustig is' am LAnd
TTITLE3=Witz 2 mit Trinkspruch
TTITLE4=Lach a bisserl, tanz a wen'g
TTITLE5=Witz 3
TTITLE6=A Liadl für's Diandl
TTITLE7=Witz 4 mit Trinkspruch
TTITLE8=Sie find mei Traktor Sexy
TTITLE9=Witz 5 mit Trinkspruch
TTITLE10=Der wilde Welt Jodler
TTITLE11=Witz 6 mit Trinkspruch
TTITLE12=Dudelsackpolka
TTITLE13=Witz 7 mit Trinkspruch
TTITLE14=Hier kann man noch die Sterne sehn
TTITLE15=Witz 8 mit Trinkspruch
TTITLE16=Im schönen Kirchberg in Tirol
TTITLE17=Motto von Brixentaler Edelweiss Duo
TTITLE18=In die Berg bi ni dahoam
TTITLE19=Witz 9 mit Trinkspruch
TTITLE20=Auf dein Wohl Tirol
TTITLE21=Witz 10 mit Trinkspruch
TTITLE22=Mei Herz das tanzt a Polka
TTITLE23=Witz 11 mit Trinkspruch
TTITLE24=Wenn's Bierkrügerl regnet und Bratwürstl schneibt
TTITLE25=Witz 12 mit Trinkspruch
TTITLE26=A so a Gerstensaft
TTITLE27=Witz 13 mit Trinkspruch
TTITLE28=Tuifel-Teifel-Hobelspän
TTITLE29=Witz 14 mit Trinkspruch
TTITLE30=Es fliegt, es fliegt
TTITLE31=Dankeschön
TTITLE32=Brixentaler Edelweiss Duo Jubiläumswalzer
EXTD=
EXTT0=
EXTT1=
EXTT2=
EXTT3=
EXTT4=
EXTT5=
EXTT6=
EXTT7=
EXTT8=
EXTT9=
EXTT10=
EXTT11=
EXTT12=
EXTT13=
EXTT14=
EXTT15=
EXTT16=
EXTT17=
EXTT18=
EXTT19=
EXTT20=
EXTT21=
EXTT22=
EXTT23=
EXTT24=
EXTT25=
EXTT26=
EXTT27=
EXTT28=
EXTT29=
EXTT30=
EXTT31=
EXTT32=
PLAYORDER=
